<svg width="900" height="620" viewBox="0 0 900 620" fill="none" xmlns="http://www.w3.org/2000/svg">
<defs>
<linearGradient id="wood" x1="141" y1="105" x2="752" y2="479" gradientUnits="userSpaceOnUse"><stop stop-color="#E6A15A"/><stop offset=".25" stop-color="#A9612F"/><stop offset=".55" stop-color="#7C3A1B"/><stop offset=".78" stop-color="#35160B"/><stop offset="1" stop-color="#D08945"/></linearGradient>
<linearGradient id="edge" x1="132" y1="455" x2="760" y2="530"><stop stop-color="#251007"/><stop offset=".5" stop-color="#6B3218"/><stop offset="1" stop-color="#140806"/></linearGradient>
<filter id="ds" x="20" y="80" width="850" height="510" filterUnits="userSpaceOnUse"><feGaussianBlur stdDeviation="18"/></filter>
<radialGradient id="pore" cx="0" cy="0" r="1" gradientUnits="userSpaceOnUse" gradientTransform="translate(441 270) rotate(22) scale(348 144)"><stop stop-color="#F2C17A" stop-opacity=".72"/><stop offset=".42" stop-color="#1B0C06" stop-opacity=".26"/><stop offset="1" stop-color="#F2A75E" stop-opacity=".33"/></radialGradient>
</defs>
<ellipse cx="448" cy="513" rx="358" ry="59" fill="#050302" opacity=".5" filter="url(#ds)"/>
<path d="M116 190c36-68 151-87 261-67 67 12 116 8 181-12 94-30 199 4 231 80 35 83-7 213-77 276-69 62-169 42-265 36-79-6-154 22-236-17-86-40-141-208-95-296Z" fill="url(#wood)"/>
<path d="M116 190c36-68 151-87 261-67 67 12 116 8 181-12 94-30 199 4 231 80 35 83-7 213-77 276-69 62-169 42-265 36-79-6-154 22-236-17-86-40-141-208-95-296Z" fill="url(#pore)"/>
<path d="M112 373c30 96 69 135 126 153 70 23 139-5 209 0 98 7 206 30 275-30 47-41 71-103 80-160-40 70-98 108-197 91-79-14-140 0-207 14-87 18-191 0-286-68Z" fill="url(#edge)" opacity=".9"/>
<path d="M180 206c125-28 198 66 318 38 94-22 152-92 250-14" stroke="#2C1208" stroke-width="18" stroke-linecap="round" opacity=".48"/>
<path d="M162 287c144 62 214-26 323 10 91 30 166 105 281 16" stroke="#F2B56E" stroke-width="9" stroke-linecap="round" opacity=".38"/>
<path d="M205 390c108 26 154-66 249-37 79 25 150 70 246 18" stroke="#180B06" stroke-width="13" stroke-linecap="round" opacity=".45"/>
<path d="M353 164c21 42 13 84-35 124" stroke="#1E0B06" stroke-width="10" stroke-linecap="round" opacity=".38"/>
<path d="M603 156c-38 69-20 128 56 177" stroke="#F5BB73" stroke-width="8" stroke-linecap="round" opacity=".35"/>
<circle cx="739" cy="410" r="18" fill="#140806" opacity=".82"/><circle cx="688" cy="452" r="11" fill="#160907" opacity=".72"/><circle cx="274" cy="456" r="13" fill="#F4B76C" opacity=".36"/>
</svg>
