<svg width="760" height="520" viewBox="0 0 760 520" fill="none" xmlns="http://www.w3.org/2000/svg"><defs><linearGradient id="wood" x1="120" y1="80" x2="660" y2="450"><stop stop-color="#D7893A"/><stop offset=".45" stop-color="#7B3E19"/><stop offset="1" stop-color="#20100A"/></linearGradient><filter id="s"><feDropShadow dx="0" dy="32" stdDeviation="28" flood-opacity=".42"/></filter><radialGradient id="shine" cx="0" cy="0" r="1" gradientUnits="userSpaceOnUse" gradientTransform="translate(265 150) scale(190 80)"><stop stop-color="#FFF0B9" stop-opacity=".6"/><stop offset="1" stop-color="#FFF0B9" stop-opacity="0"/></radialGradient></defs><ellipse cx="380" cy="462" rx="280" ry="40" fill="#000" opacity=".35"/><g filter="url(#s)"><path d="M92 150c22-66 86-107 162-93 74 14 122-45 210-32 97 14 93 86 153 98 74 15 107 55 80 118-31 71 15 128-62 167-67 34-115-8-198 13-105 27-148 65-245 12-68-37-43-101-89-147-42-41-30-79-11-136Z" fill="url(#wood)"/><path d="M170 208c116-72 247-95 414-46M151 287c171-78 343-85 476-19M219 383c103-43 231-54 346-27" stroke="#2D1208" stroke-width="7" opacity=".55" stroke-linecap="round"/><path d="M120 238c139-68 284-83 473-68" stroke="#F8C573" stroke-width="4" opacity=".35" stroke-linecap="round"/><path d="M92 150c22-66 86-107 162-93 74 14 122-45 210-32 97 14 93 86 153 98 74 15 107 55 80 118-31 71 15 128-62 167-67 34-115-8-198 13-105 27-148 65-245 12-68-37-43-101-89-147-42-41-30-79-11-136Z" fill="url(#shine)"/></g><circle cx="545" cy="190" r="38" fill="#1A0D08" opacity=".55"/><circle cx="550" cy="188" r="24" fill="#73401F"/><circle cx="255" cy="322" r="28" fill="#120B08" opacity=".5"/><circle cx="258" cy="320" r="18" fill="#8C5227"/></svg>