<svg width="640" height="640" viewBox="0 0 640 640" fill="none" xmlns="http://www.w3.org/2000/svg">
<defs><radialGradient id="g1" cx="0" cy="0" r="1" gradientUnits="userSpaceOnUse" gradientTransform="translate(246 220) rotate(48) scale(260 350)"><stop stop-color="#FFE6A6"/><stop offset=".38" stop-color="#B67635"/><stop offset="1" stop-color="#241108"/></radialGradient><radialGradient id="tea" cx="0" cy="0" r="1" gradientUnits="userSpaceOnUse" gradientTransform="translate(290 195) scale(135 55)"><stop stop-color="#B85C25"/><stop offset="1" stop-color="#261007"/></radialGradient><filter id="blur"><feGaussianBlur stdDeviation="10"/></filter><linearGradient id="steam" x1="0" x2="0" y1="0" y2="1"><stop stop-color="#FFF0C2" stop-opacity="0"/><stop offset=".5" stop-color="#FFF0C2" stop-opacity=".65"/><stop offset="1" stop-color="#FFF0C2" stop-opacity="0"/></linearGradient></defs>
<ellipse cx="302" cy="543" rx="184" ry="40" fill="#000" opacity=".32" filter="url(#blur)"/><path d="M158 207h305l-39 278c-8 56-54 97-110 97h-9c-57 0-104-42-111-99l-36-276Z" fill="url(#g1)"/><path d="M158 207c0-43 68-78 153-78s152 35 152 78-68 78-152 78-153-35-153-78Z" fill="#FFE2A0"/><ellipse cx="311" cy="205" rx="121" ry="55" fill="url(#tea)"/><path d="M434 264c70-12 118 20 118 77 0 67-68 104-143 78l13-55c38 14 68 1 68-25 0-24-24-37-62-27l6-48Z" fill="#7D4B25"/><path d="M435 262c72-9 117 21 117 78 0 67-67 104-142 79" stroke="#F2C778" stroke-width="26" stroke-linecap="round" opacity=".62"/><path d="M257 110c-36-54 28-85 2-132" stroke="url(#steam)" stroke-width="16" stroke-linecap="round"/><path d="M320 103c-45-68 41-98 7-160" stroke="url(#steam)" stroke-width="16" stroke-linecap="round" opacity=".9"/><path d="M382 116c-32-56 37-84 16-132" stroke="url(#steam)" stroke-width="14" stroke-linecap="round" opacity=".72"/><circle cx="220" cy="272" r="22" fill="#FFF4C8" opacity=".32"/><path d="M207 245c29-32 83-42 142-33" stroke="#FFF1C1" stroke-width="16" stroke-linecap="round" opacity=".42"/></svg>