<svg width="700" height="560" viewBox="0 0 700 560" fill="none" xmlns="http://www.w3.org/2000/svg"><defs><radialGradient id="pot" cx="0" cy="0" r="1" gradientUnits="userSpaceOnUse" gradientTransform="translate(282 190) rotate(38) scale(250 300)"><stop stop-color="#FFE8AE"/><stop offset=".38" stop-color="#936134"/><stop offset="1" stop-color="#16100D"/></radialGradient><filter id="shadow"><feDropShadow dx="0" dy="32" stdDeviation="26" flood-opacity=".42"/></filter></defs><ellipse cx="340" cy="500" rx="240" ry="38" fill="#000" opacity=".35"/><g filter="url(#shadow)"><path d="M196 260c0-95 78-172 174-172 101 0 184 78 184 174 0 108-93 196-203 196-86 0-155-63-155-198Z" fill="url(#pot)"/><ellipse cx="361" cy="111" rx="79" ry="42" fill="#F4CD87"/><ellipse cx="361" cy="111" rx="45" ry="20" fill="#29160C"/><path d="M523 214c78-25 124 14 133 73 10 70-52 124-133 103l5-62c36 12 73-4 69-38-3-30-29-41-74-29v-47Z" fill="#8C5A2D"/><path d="M193 245c-70 3-117 28-144 75 63-17 102-13 143 13" fill="#8A5528"/><path d="M196 244c-83 0-128 32-151 78 63-20 108-13 147 14" stroke="#F5D493" stroke-width="20" stroke-linecap="round" stroke-linejoin="round" opacity=".6"/><path d="M301 88c5-43 115-43 120 0" stroke="#F5D493" stroke-width="20" stroke-linecap="round"/><circle cx="288" cy="206" r="22" fill="#FFF0C3" opacity=".35"/></g></svg>